# xmcd
#
# Track frame offsets: 
#        150
#        14455
#        28879
#        43763
#        66100
#        77967
#        92391
#        112332
#        131199
#        155173
#        169492
#        185996
#        205919
#
# Disc length: 3044 seconds
#
# Revision: 0
# Processed by: cddbd v1.5.2PL0 Copyright (c) Steve Scherf et al.
# Submitted via: ExactAudioCopy v1.3
#
DISCID=c70be20d
DTITLE=Peter Ward - Blues On My Shoulders
DYEAR=2017
DGENRE=Guitar Blues
TTITLE0=She Took It All
TTITLE1=Which Hazel
TTITLE2=Blues on My Shoulders
TTITLE3=Collaborate
TTITLE4=Shiprock
TTITLE5=What Can I Do to You
TTITLE6=It's On Me
TTITLE7=Southpaw
TTITLE8=A Little More
TTITLE9=On the Ropes
TTITLE10=Colletta
TTITLE11=Kansas City Blues
TTITLE12=Drummin' Willie
EXTD=
EXTT0=
EXTT1=
EXTT2=
EXTT3=
EXTT4=
EXTT5=
EXTT6=
EXTT7=
EXTT8=
EXTT9=
EXTT10=
EXTT11=
EXTT12=
PLAYORDER=
